<?xml version="1.0" encoding="utf-8"?>
<!-- Generator: Adobe Illustrator 24.1.2, SVG Export Plug-In . SVG Version: 6.00 Build 0)  -->
<svg version="1.1" id="Layer_2" xmlns="http://www.w3.org/2000/svg" xmlns:xlink="http://www.w3.org/1999/xlink" x="0px" y="0px"
	 viewBox="0 0 500 500" style="enable-background:new 0 0 500 500;" xml:space="preserve">
<style type="text/css">
	.st0{fill:#FF0013;}
</style>
<path class="st0" d="M355.1,93.8c-1.6-1.1-3.3,1.1-1.9,2.4c25.7,22.7,41.6,53.9,41.6,88.3c0,64.8-56.3,118.1-128.7,125
	c-4.1,0.4-7.4,3.5-8.1,7.5c-0.9,5.9-1.8,11.8-2.6,17.7c-2.1,16.3-5.5,32.7-5.5,49c0-16.3-3.4-32.7-5.5-49
	c-0.8-5.9-1.6-11.8-2.6-17.7c-0.6-4-4-7.1-8.1-7.5c-72.4-7-128.7-60.3-128.7-125c0-34.4,15.9-65.6,41.6-88.3
	c1.4-1.3-0.3-3.5-1.9-2.4C107.7,120.2,84,160.4,84,205.4c0,66.1,51.3,121.9,121.2,138.9c8.8,2.1,16,8.5,18.4,17.2
	c0.4,1.4,0.8,2.9,1.1,4.5c3.1,11.7,5.9,23.3,8.5,35c0.7,3.3,3.6,5.6,6.9,5.6h19.9c3.3,0,6.2-2.3,6.9-5.6c2.6-11.7,5.4-23.3,8.5-35
	c0.3-1.3,0.6-2.5,0.9-3.7c2.4-9,9.6-15.8,18.6-18c69.9-17,121.1-72.7,121.1-138.9C416,160.4,392.3,120.2,355.1,93.8z"/>
</svg>
